<svg width="21" height="25" viewBox="0 0 21 25" fill="none" xmlns="http://www.w3.org/2000/svg">
<path fill-rule="evenodd" clip-rule="evenodd" d="M4.81882 14.031L5.34982 14.5605L6.41032 13.5L5.87932 12.9705L3.18982 10.2795C2.89732 9.98699 2.89732 9.51299 3.18982 9.21899L10.0688 2.34149C10.3628 2.04749 10.8368 2.04749 11.1293 2.34149L18.0083 9.21899C18.3008 9.51299 18.3008 9.98699 18.0083 10.2795L15.3188 12.969L14.7893 13.5L15.8498 14.5605L16.3793 14.0295L19.0688 11.3415C19.9478 10.4625 19.9478 9.03749 19.0688 8.15849L12.1913 1.27949C11.3123 0.401993 9.88732 0.401993 9.00832 1.27949L2.12932 8.15999C1.25182 9.03899 1.25182 10.464 2.12932 11.3415L4.81882 14.0325V14.031ZM10.0688 15.219L10.5998 14.6895L11.1308 15.219L15.6308 19.719L14.5703 20.7795L11.3498 17.5605V24.75H9.84982V17.5605L6.63082 20.7795L5.57032 19.719L10.0703 15.219H10.0688Z" fill="white" stroke="white"/>
</svg>
