<svg width="72" height="73" viewBox="0 0 72 73" fill="none" xmlns="http://www.w3.org/2000/svg">
<path d="M44.8526 36.3753V30.0963C44.8526 28.7113 44.2616 28.1572 42.7935 28.1572H39.063C37.5949 28.1572 37.0039 28.7113 37.0039 30.0963V36.3753C37.0039 37.7603 37.5949 38.3144 39.063 38.3144H42.7935C44.2616 38.3144 44.8526 37.7603 44.8526 36.3753Z" fill="white"/>
<path d="M35.1573 38.4069V44.6858C35.1573 46.0709 34.5663 46.6249 33.0982 46.6249H29.3677C27.8996 46.6249 27.3086 46.0709 27.3086 44.6858V38.4069C27.3086 37.0218 27.8996 36.4678 29.3677 36.4678H33.0982C34.5663 36.4678 35.1573 37.0218 35.1573 38.4069Z" fill="white"/>
<path d="M44.8526 44.6857V42.1002C44.8526 40.7152 44.2616 40.1611 42.7935 40.1611H39.063C37.5949 40.1611 37.0039 40.7152 37.0039 42.1002V44.6857C37.0039 46.0707 37.5949 46.6248 39.063 46.6248H42.7935C44.2616 46.6248 44.8526 46.0707 44.8526 44.6857Z" fill="white"/>
<path d="M35.1573 32.6818V30.0963C35.1573 28.7113 34.5663 28.1572 33.0982 28.1572H29.3677C27.8996 28.1572 27.3086 28.7113 27.3086 30.0963V32.6818C27.3086 34.0668 27.8996 34.6209 29.3677 34.6209H33.0982C34.5663 34.6209 35.1573 34.0668 35.1573 32.6818Z" fill="white"/>
<g opacity="0.2" filter="url(#filter0_f_126_6142)">
<path d="M44.2551 35.604V29.8061C44.2551 28.5272 43.7094 28.0156 42.3537 28.0156H38.9092C37.5535 28.0156 37.0078 28.5272 37.0078 29.8061V35.604C37.0078 36.8829 37.5535 37.3945 38.9092 37.3945H42.3537C43.7094 37.3945 44.2551 36.8829 44.2551 35.604Z" fill="white"/>
<path d="M35.3029 37.48V43.2778C35.3029 44.5567 34.7573 45.0683 33.4016 45.0683H29.957C28.6013 45.0683 28.0557 44.5567 28.0557 43.2778V37.48C28.0557 36.201 28.6013 35.6895 29.957 35.6895H33.4016C34.7573 35.6895 35.3029 36.201 35.3029 37.48Z" fill="white"/>
<path d="M44.2551 43.2777V40.8904C44.2551 39.6114 43.7094 39.0999 42.3537 39.0999H38.9092C37.5535 39.0999 37.0078 39.6114 37.0078 40.8904V43.2777C37.0078 44.5566 37.5535 45.0682 38.9092 45.0682H42.3537C43.7094 45.0682 44.2551 44.5566 44.2551 43.2777Z" fill="white"/>
<path d="M35.3029 32.1935V29.8061C35.3029 28.5272 34.7573 28.0156 33.4016 28.0156H29.957C28.6013 28.0156 28.0557 28.5272 28.0557 29.8061V32.1935C28.0557 33.4724 28.6013 33.984 29.957 33.984H33.4016C34.7573 33.984 35.3029 33.4724 35.3029 32.1935Z" fill="white"/>
</g>
<defs>
<filter id="filter0_f_126_6142" x="-1.3039" y="-0.917177" width="74.9183" height="74.9183" filterUnits="userSpaceOnUse" color-interpolation-filters="sRGB">
<feFlood flood-opacity="0" result="BackgroundImageFix"/>
<feBlend mode="normal" in="SourceGraphic" in2="BackgroundImageFix" result="shape"/>
<feGaussianBlur stdDeviation="13.6139" result="effect1_foregroundBlur_126_6142"/>
</filter>
</defs>
</svg>
