<svg width="1920" height="1080" viewBox="0 0 1920 1080" fill="none" xmlns="http://www.w3.org/2000/svg">
<g clip-path="url(#clip0_3_15)">
<rect width="1920" height="1080" fill="#090913"/>
<path d="M159.373 977.462C159.373 979.465 158.795 981.083 157.601 982.278C156.252 983.703 154.519 984.397 152.322 984.397C150.242 984.397 148.469 983.665 147.005 982.239C145.541 980.775 144.848 979.003 144.848 976.884C144.848 974.765 145.58 972.992 147.005 971.528C148.469 970.064 150.203 969.371 152.322 969.371C153.363 969.371 154.364 969.563 155.328 969.948C156.252 970.334 157.023 970.835 157.639 971.528L156.329 972.838C155.906 972.299 155.328 971.875 154.596 971.567C153.902 971.258 153.131 971.104 152.322 971.104C150.743 971.104 149.433 971.644 148.354 972.723C147.275 973.84 146.736 975.188 146.736 976.845C146.736 978.502 147.275 979.851 148.354 980.968C149.433 982.047 150.781 982.586 152.322 982.586C153.748 982.586 154.942 982.201 155.906 981.392C156.869 980.583 157.408 979.465 157.562 978.078H152.322V976.344H159.296C159.335 976.768 159.373 977.115 159.373 977.462Z" fill="white"/>
<path d="M161.646 984.089V969.717H166.039C168.235 969.717 170.007 970.372 171.317 971.721C172.666 973.031 173.321 974.765 173.321 976.922C173.321 979.08 172.666 980.814 171.317 982.124C169.969 983.434 168.235 984.089 166.039 984.089H161.646ZM163.496 971.49V982.316H166.039C167.696 982.316 169.044 981.854 170.007 980.891C170.971 979.928 171.471 978.618 171.471 976.922C171.471 975.227 170.971 973.917 170.007 972.954C169.044 971.991 167.734 971.49 166.039 971.49H163.496Z" fill="white"/>
<path d="M189.349 977.462C189.349 979.465 188.771 981.083 187.576 982.278C186.228 983.703 184.494 984.397 182.298 984.397C180.217 984.397 178.445 983.665 176.981 982.239C175.517 980.775 174.823 979.003 174.823 976.884C174.823 974.765 175.555 972.992 176.981 971.528C178.445 970.064 180.179 969.371 182.298 969.371C183.338 969.371 184.34 969.563 185.303 969.948C186.228 970.334 186.998 970.835 187.615 971.528L186.305 972.838C185.881 972.299 185.303 971.875 184.571 971.567C183.878 971.258 183.107 971.104 182.298 971.104C180.718 971.104 179.408 971.644 178.329 972.723C177.251 973.84 176.711 975.188 176.711 976.845C176.711 978.502 177.251 979.851 178.329 980.968C179.408 982.047 180.757 982.586 182.298 982.586C183.724 982.586 184.918 982.201 185.881 981.392C186.844 980.583 187.384 979.465 187.538 978.078H182.298V976.344H189.272C189.31 976.768 189.349 977.115 189.349 977.462Z" fill="white"/>
<path d="M196.246 984.089H194.204L199.637 969.717H201.717L207.15 984.089H205.108L203.721 980.197H197.672L196.246 984.089ZM200.638 971.991L198.288 978.463H203.066L200.716 971.991H200.638Z" fill="white"/>
<path d="M210.347 969.717V984.089H208.498V969.717H210.347Z" fill="white"/>
<path d="M216.859 988.751C216.32 988.751 215.78 988.674 215.318 988.558C214.817 988.404 214.393 988.211 214.008 987.98C213.623 987.71 213.276 987.441 213.006 987.094C212.736 986.747 212.505 986.362 212.351 985.938L214.085 985.206C214.278 985.784 214.624 986.246 215.125 986.593C215.626 986.94 216.204 987.133 216.859 987.133C217.861 987.133 218.631 986.824 219.209 986.246C219.787 985.63 220.057 984.821 220.057 983.742V982.817H219.98C219.633 983.357 219.171 983.742 218.554 984.05C217.976 984.358 217.321 984.513 216.628 984.513C215.356 984.513 214.239 984.012 213.314 983.01C212.39 981.97 211.966 980.737 211.966 979.273C211.966 977.808 212.428 976.576 213.314 975.574C214.239 974.572 215.356 974.033 216.628 974.033C217.321 974.033 217.976 974.187 218.554 974.495C219.132 974.803 219.633 975.227 219.98 975.728H220.057V974.379H221.829V983.781C221.829 985.36 221.367 986.593 220.481 987.479C219.556 988.288 218.362 988.751 216.859 988.751ZM216.936 982.702C217.861 982.702 218.593 982.355 219.171 981.7C219.787 981.045 220.057 980.197 220.057 979.118C220.057 978.078 219.749 977.231 219.171 976.576C218.593 975.921 217.822 975.574 216.936 975.574C216.05 975.574 215.318 975.921 214.701 976.576C214.085 977.231 213.815 978.078 213.815 979.118C213.815 980.159 214.123 981.006 214.701 981.661C215.318 982.393 216.05 982.702 216.936 982.702Z" fill="white"/>
<path d="M226.453 970.835C226.453 971.181 226.337 971.49 226.068 971.759C225.798 972.029 225.49 972.145 225.143 972.145C224.796 972.145 224.488 972.029 224.218 971.759C223.949 971.49 223.833 971.181 223.833 970.835C223.833 970.488 223.949 970.18 224.218 969.91C224.488 969.64 224.796 969.525 225.143 969.525C225.49 969.525 225.798 969.64 226.068 969.91C226.337 970.18 226.453 970.488 226.453 970.835ZM226.068 974.225V984.05H224.218V974.225H226.068Z" fill="white"/>
<path d="M232.81 984.397C231.346 984.397 230.19 983.896 229.227 982.894C228.302 981.893 227.84 980.66 227.84 979.157C227.84 977.654 228.302 976.421 229.188 975.42C230.113 974.418 231.269 973.917 232.695 973.917C234.159 973.917 235.315 974.379 236.162 975.343C237.01 976.267 237.472 977.616 237.472 979.311L237.434 979.504H229.689C229.728 980.467 230.036 981.238 230.652 981.816C231.269 982.393 232.001 982.702 232.849 982.702C234.043 982.702 234.968 982.124 235.623 980.929L237.28 981.739C236.856 982.586 236.239 983.203 235.43 983.703C234.698 984.166 233.812 984.397 232.81 984.397ZM229.843 977.963H235.469C235.43 977.269 235.122 976.73 234.621 976.267C234.12 975.805 233.465 975.612 232.617 975.612C231.924 975.612 231.307 975.844 230.807 976.267C230.344 976.691 230.036 977.269 229.843 977.963Z" fill="white"/>
<path d="M241.016 984.089H239.167V974.264H240.939V975.882H241.016C241.209 975.343 241.594 974.919 242.172 974.533C242.75 974.148 243.328 973.994 243.906 973.994C244.446 973.994 244.908 974.071 245.255 974.225L244.677 975.998C244.446 975.921 244.099 975.843 243.598 975.843C242.904 975.843 242.288 976.113 241.787 976.691C241.286 977.269 241.016 977.924 241.016 978.656V984.089Z" fill="white"/>
<path d="M253.577 981.353C253.577 982.201 253.192 982.933 252.46 983.511C251.728 984.089 250.765 984.397 249.647 984.397C248.646 984.397 247.798 984.127 247.027 983.626C246.295 983.125 245.756 982.432 245.409 981.584L247.066 980.891C247.297 981.469 247.644 981.931 248.106 982.278C248.569 982.625 249.069 982.779 249.609 982.779C250.187 982.779 250.688 982.663 251.073 982.393C251.458 982.124 251.651 981.854 251.651 981.507C251.651 980.891 251.15 980.428 250.187 980.12L248.492 979.696C246.565 979.195 245.602 978.309 245.602 976.922C245.602 976.036 245.949 975.304 246.681 974.765C247.413 974.225 248.337 973.956 249.493 973.956C250.379 973.956 251.15 974.148 251.844 974.572C252.537 974.996 253.038 975.535 253.308 976.229L251.651 976.922C251.458 976.498 251.15 976.19 250.726 975.959C250.302 975.728 249.84 975.612 249.301 975.612C248.8 975.612 248.376 975.728 247.991 975.959C247.605 976.19 247.413 976.498 247.413 976.845C247.413 977.423 247.952 977.808 248.992 978.04L250.495 978.425C252.614 978.887 253.577 979.85 253.577 981.353Z" fill="white"/>
<path d="M159.373 977.462C159.373 979.465 158.795 981.083 157.601 982.278C156.252 983.703 154.519 984.397 152.322 984.397C150.242 984.397 148.469 983.665 147.005 982.239C145.541 980.775 144.848 979.003 144.848 976.884C144.848 974.765 145.58 972.992 147.005 971.528C148.469 970.064 150.203 969.371 152.322 969.371C153.363 969.371 154.364 969.563 155.328 969.948C156.252 970.334 157.023 970.835 157.639 971.528L156.329 972.838C155.906 972.299 155.328 971.875 154.596 971.567C153.902 971.258 153.131 971.104 152.322 971.104C150.743 971.104 149.433 971.644 148.354 972.723C147.275 973.84 146.736 975.188 146.736 976.845C146.736 978.502 147.275 979.851 148.354 980.968C149.433 982.047 150.781 982.586 152.322 982.586C153.748 982.586 154.942 982.201 155.906 981.392C156.869 980.583 157.408 979.465 157.562 978.078H152.322V976.344H159.296C159.335 976.768 159.373 977.115 159.373 977.462Z" fill="white"/>
<path d="M161.646 984.089V969.717H166.039C168.235 969.717 170.007 970.372 171.317 971.721C172.666 973.031 173.321 974.765 173.321 976.922C173.321 979.08 172.666 980.814 171.317 982.124C169.969 983.434 168.235 984.089 166.039 984.089H161.646ZM163.496 971.49V982.316H166.039C167.696 982.316 169.044 981.854 170.007 980.891C170.971 979.928 171.471 978.618 171.471 976.922C171.471 975.227 170.971 973.917 170.007 972.954C169.044 971.991 167.734 971.49 166.039 971.49H163.496Z" fill="white"/>
<path d="M189.349 977.462C189.349 979.465 188.771 981.083 187.576 982.278C186.228 983.703 184.494 984.397 182.298 984.397C180.217 984.397 178.445 983.665 176.981 982.239C175.517 980.775 174.823 979.003 174.823 976.884C174.823 974.765 175.555 972.992 176.981 971.528C178.445 970.064 180.179 969.371 182.298 969.371C183.338 969.371 184.34 969.563 185.303 969.948C186.228 970.334 186.998 970.835 187.615 971.528L186.305 972.838C185.881 972.299 185.303 971.875 184.571 971.567C183.878 971.258 183.107 971.104 182.298 971.104C180.718 971.104 179.408 971.644 178.329 972.723C177.251 973.84 176.711 975.188 176.711 976.845C176.711 978.502 177.251 979.851 178.329 980.968C179.408 982.047 180.757 982.586 182.298 982.586C183.724 982.586 184.918 982.201 185.881 981.392C186.844 980.583 187.384 979.465 187.538 978.078H182.298V976.344H189.272C189.31 976.768 189.349 977.115 189.349 977.462Z" fill="white"/>
<path d="M196.246 984.089H194.204L199.637 969.717H201.717L207.15 984.089H205.108L203.721 980.197H197.672L196.246 984.089ZM200.638 971.991L198.288 978.463H203.066L200.716 971.991H200.638Z" fill="white"/>
<path d="M210.347 969.717V984.089H208.498V969.717H210.347Z" fill="white"/>
<path d="M216.859 988.751C216.32 988.751 215.78 988.674 215.318 988.558C214.817 988.404 214.393 988.211 214.008 987.98C213.623 987.71 213.276 987.441 213.006 987.094C212.736 986.747 212.505 986.362 212.351 985.938L214.085 985.206C214.278 985.784 214.624 986.246 215.125 986.593C215.626 986.94 216.204 987.133 216.859 987.133C217.861 987.133 218.631 986.824 219.209 986.246C219.787 985.63 220.057 984.821 220.057 983.742V982.817H219.98C219.633 983.357 219.171 983.742 218.554 984.05C217.976 984.358 217.321 984.513 216.628 984.513C215.356 984.513 214.239 984.012 213.314 983.01C212.39 981.97 211.966 980.737 211.966 979.273C211.966 977.808 212.428 976.576 213.314 975.574C214.239 974.572 215.356 974.033 216.628 974.033C217.321 974.033 217.976 974.187 218.554 974.495C219.132 974.803 219.633 975.227 219.98 975.728H220.057V974.379H221.829V983.781C221.829 985.36 221.367 986.593 220.481 987.479C219.556 988.288 218.362 988.751 216.859 988.751ZM216.936 982.702C217.861 982.702 218.593 982.355 219.171 981.7C219.787 981.045 220.057 980.197 220.057 979.118C220.057 978.078 219.749 977.231 219.171 976.576C218.593 975.921 217.822 975.574 216.936 975.574C216.05 975.574 215.318 975.921 214.701 976.576C214.085 977.231 213.815 978.078 213.815 979.118C213.815 980.159 214.123 981.006 214.701 981.661C215.318 982.393 216.05 982.702 216.936 982.702Z" fill="white"/>
<path d="M226.453 970.835C226.453 971.181 226.337 971.49 226.068 971.759C225.798 972.029 225.49 972.145 225.143 972.145C224.796 972.145 224.488 972.029 224.218 971.759C223.949 971.49 223.833 971.181 223.833 970.835C223.833 970.488 223.949 970.18 224.218 969.91C224.488 969.64 224.796 969.525 225.143 969.525C225.49 969.525 225.798 969.64 226.068 969.91C226.337 970.18 226.453 970.488 226.453 970.835ZM226.068 974.225V984.05H224.218V974.225H226.068Z" fill="white"/>
<path d="M232.81 984.397C231.346 984.397 230.19 983.896 229.227 982.894C228.302 981.893 227.84 980.66 227.84 979.157C227.84 977.654 228.302 976.421 229.188 975.42C230.113 974.418 231.269 973.917 232.695 973.917C234.159 973.917 235.315 974.379 236.162 975.343C237.01 976.267 237.472 977.616 237.472 979.311L237.434 979.504H229.689C229.728 980.467 230.036 981.238 230.652 981.816C231.269 982.393 232.001 982.702 232.849 982.702C234.043 982.702 234.968 982.124 235.623 980.929L237.28 981.739C236.856 982.586 236.239 983.203 235.43 983.703C234.698 984.166 233.812 984.397 232.81 984.397ZM229.843 977.963H235.469C235.43 977.269 235.122 976.73 234.621 976.267C234.12 975.805 233.465 975.612 232.617 975.612C231.924 975.612 231.307 975.844 230.807 976.267C230.344 976.691 230.036 977.269 229.843 977.963Z" fill="white"/>
<path d="M241.016 984.089H239.167V974.264H240.939V975.882H241.016C241.209 975.343 241.594 974.919 242.172 974.533C242.75 974.148 243.328 973.994 243.906 973.994C244.446 973.994 244.908 974.071 245.255 974.225L244.677 975.998C244.446 975.921 244.099 975.843 243.598 975.843C242.904 975.843 242.288 976.113 241.787 976.691C241.286 977.269 241.016 977.924 241.016 978.656V984.089Z" fill="white"/>
<path d="M253.577 981.353C253.577 982.201 253.192 982.933 252.46 983.511C251.728 984.089 250.765 984.397 249.647 984.397C248.646 984.397 247.798 984.127 247.027 983.626C246.295 983.125 245.756 982.432 245.409 981.584L247.066 980.891C247.297 981.469 247.644 981.931 248.106 982.278C248.569 982.625 249.069 982.779 249.609 982.779C250.187 982.779 250.688 982.663 251.073 982.393C251.458 982.124 251.651 981.854 251.651 981.507C251.651 980.891 251.15 980.428 250.187 980.12L248.492 979.696C246.565 979.195 245.602 978.309 245.602 976.922C245.602 976.036 245.949 975.304 246.681 974.765C247.413 974.225 248.337 973.956 249.493 973.956C250.379 973.956 251.15 974.148 251.844 974.572C252.537 974.996 253.038 975.535 253.308 976.229L251.651 976.922C251.458 976.498 251.15 976.19 250.726 975.959C250.302 975.728 249.84 975.612 249.301 975.612C248.8 975.612 248.376 975.728 247.991 975.959C247.605 976.19 247.413 976.498 247.413 976.845C247.413 977.423 247.952 977.808 248.992 978.04L250.495 978.425C252.614 978.887 253.577 979.85 253.577 981.353Z" fill="white"/>
<path fill-rule="evenodd" clip-rule="evenodd" d="M108.283 967.29L96.7239 973.955C95.1442 974.88 94.6048 976.884 95.5295 978.463C96.4542 980.043 98.4577 980.582 100.037 979.658L111.596 972.992C113.176 972.068 113.715 970.064 112.791 968.484C111.904 966.905 109.862 966.365 108.283 967.29Z" fill="#EA4334"/>
<path fill-rule="evenodd" clip-rule="evenodd" d="M111.519 980.698L99.9603 974.033C98.3806 973.108 96.3385 973.647 95.4524 975.227C94.5277 976.807 95.0671 978.849 96.6468 979.735L108.206 986.4C109.785 987.325 111.827 986.786 112.713 985.206C113.638 983.626 113.099 981.584 111.519 980.698Z" fill="#4285F4"/>
<path fill-rule="evenodd" clip-rule="evenodd" d="M119.225 980.814L130.784 974.148C132.363 973.223 134.405 973.763 135.292 975.342C136.216 976.922 135.677 978.964 134.097 979.85L122.538 986.516C120.959 987.441 118.917 986.901 118.03 985.322C117.106 983.742 117.645 981.7 119.225 980.814Z" fill="#FCBC05"/>
<path fill-rule="evenodd" clip-rule="evenodd" d="M122.654 967.405L134.212 974.071C135.792 974.996 136.332 976.999 135.407 978.579C134.482 980.159 132.479 980.698 130.899 979.773L119.34 973.108C117.76 972.183 117.221 970.18 118.146 968.6C119.032 967.02 121.074 966.481 122.654 967.405Z" fill="#0D9D58"/>
<path d="M294.572 988.982H287.135C282.936 987.132 279.699 983.935 277.388 979.427C277.426 979.35 277.426 979.273 277.388 979.195C276.848 975.15 276.694 970.257 277.002 965.441C277.041 965.132 276.771 964.824 276.463 964.824C276.155 964.786 275.846 965.055 275.846 965.363C275.615 968.985 275.654 972.684 275.885 975.998C275.384 974.572 274.922 973.069 274.575 971.451C274.575 971.413 274.575 971.374 274.536 971.374C274.729 969.255 275.037 967.02 275.538 964.708C275.615 964.4 275.384 964.092 275.076 964.015C274.768 963.938 274.459 964.169 274.382 964.477C274.036 966.096 273.766 967.675 273.573 969.216C273.458 969.255 273.381 969.37 273.303 969.448C272.726 969.332 272.148 969.332 271.57 969.448C271.531 969.332 271.493 969.255 271.377 969.178C271.146 967.598 270.799 966.018 270.337 964.439C270.26 964.131 269.913 963.938 269.605 964.053C269.296 964.131 269.104 964.477 269.219 964.786C269.836 966.905 270.221 969.062 270.414 971.181C270.414 971.22 270.414 971.258 270.414 971.297C270.414 971.297 270.414 971.297 270.414 971.335C270.414 971.374 270.414 971.413 270.414 971.413C270.221 973.724 269.682 975.882 268.834 977.924C269.181 974.418 269.296 970.218 269.142 965.441C269.142 965.132 268.873 964.863 268.526 964.863C268.218 964.863 267.948 965.132 267.948 965.479C268.141 971.644 267.909 976.768 267.254 980.737C267.254 980.775 267.254 980.814 267.254 980.852C265.212 984.05 262.169 986.786 258.2 989.097H251.843C251.573 989.097 251.342 989.329 251.342 989.598C251.342 989.868 251.573 990.099 251.843 990.099H256.389H258.855H266.407H266.522H267.717H267.832H268.41H271.493H272.071H272.648H273.226H276.232H276.81H277.002H277.079H278.274H278.389H286.326H289.717H294.495C294.764 990.099 294.995 989.868 294.995 989.598C295.034 989.175 294.841 988.982 294.572 988.982ZM273.342 977.731C273.419 978.772 273.573 979.773 273.727 980.737C273.458 980.082 273.226 979.427 273.034 978.772C273.149 978.425 273.226 978.078 273.342 977.731ZM271.647 971.066C271.647 971.181 271.647 971.258 271.685 971.374C271.685 971.49 271.685 971.567 271.724 971.682H273.265C273.149 973.3 272.918 974.957 272.494 976.653C272.148 975.265 271.916 973.878 271.801 972.53C271.762 972.26 271.762 971.99 271.724 971.721C271.724 971.605 271.724 971.528 271.724 971.413C271.647 971.258 271.647 971.181 271.647 971.066ZM271.493 977.731C271.57 978.078 271.685 978.425 271.801 978.772C271.531 979.658 271.184 980.544 270.838 981.43C271.146 980.197 271.338 978.964 271.493 977.731ZM266.908 988.982H260.473C265.366 985.784 268.68 981.854 270.375 977.153C269.951 981.083 268.796 985.013 266.908 988.982ZM272.263 988.982C272.34 988.442 272.379 987.865 272.456 987.287C272.494 987.865 272.571 988.442 272.648 988.982H272.263ZM276.54 988.982H276.27H273.188C272.918 986.747 272.764 984.243 272.726 981.43V981.392C272.726 981.199 272.726 980.968 272.726 980.775C272.726 980.467 272.726 980.12 272.726 979.812C272.726 979.504 272.726 979.195 272.726 978.849C272.726 978.695 272.61 978.54 272.456 978.54C272.302 978.54 272.186 978.656 272.186 978.849C272.186 979.195 272.186 979.504 272.186 979.85C272.186 980.159 272.186 980.467 272.186 980.775C272.186 980.968 272.186 981.199 272.186 981.392V981.43C272.148 984.281 271.993 986.786 271.724 989.02H268.564H268.333H268.218C268.333 988.751 271.223 983.819 272.148 981.43C272.148 981.237 272.148 981.006 272.148 980.775C272.148 980.467 272.148 980.12 272.148 979.812C272.148 979.504 272.148 979.195 272.148 978.849C272.148 978.695 272.263 978.54 272.456 978.54C272.61 978.54 272.764 978.656 272.764 978.849C272.764 979.157 272.764 979.465 272.764 979.773C272.764 980.12 272.764 980.467 272.764 980.775C272.764 981.006 272.764 981.237 272.764 981.43C273.612 983.703 276.54 988.905 276.54 988.982ZM277.966 988.982H277.927C277.773 988.751 277.657 988.481 277.503 988.25C275.5 984.474 274.498 980.159 274.421 975.265C276.463 981.623 279.892 986.246 284.593 988.982H277.966Z" fill="white"/>
<g filter="url(#filter0_f_3_15)">
<ellipse cx="56.2007" cy="153.331" rx="506.536" ry="440.03" transform="rotate(27.7641 56.2007 153.331)" fill="url(#paint0_linear_3_15)" fill-opacity="0.13"/>
</g>
<g style="mix-blend-mode:overlay" filter="url(#filter1_f_3_15)">
<ellipse cx="217.201" cy="211.331" rx="506.536" ry="440.03" transform="rotate(27.7641 217.201 211.331)" fill="#3DC6D5"/>
</g>
<g style="mix-blend-mode:overlay" filter="url(#filter2_f_3_15)">
<ellipse cx="1712.2" cy="990.331" rx="506.536" ry="440.03" transform="rotate(27.7641 1712.2 990.331)" fill="url(#paint1_linear_3_15)" fill-opacity="0.82"/>
</g>
<g style="mix-blend-mode:overlay" filter="url(#filter3_f_3_15)">
<ellipse cx="1712.2" cy="903.331" rx="506.536" ry="440.03" transform="rotate(27.7641 1712.2 903.331)" fill="url(#paint2_linear_3_15)" fill-opacity="0.82"/>
</g>
</g>
<defs>
<filter id="filter0_f_3_15" x="-736.787" y="-602.023" width="1585.98" height="1510.71" filterUnits="userSpaceOnUse" color-interpolation-filters="sRGB">
<feFlood flood-opacity="0" result="BackgroundImageFix"/>
<feBlend mode="normal" in="SourceGraphic" in2="BackgroundImageFix" result="shape"/>
<feGaussianBlur stdDeviation="150" result="effect1_foregroundBlur_3_15"/>
</filter>
<filter id="filter1_f_3_15" x="-1075.79" y="-1044.02" width="2585.98" height="2510.71" filterUnits="userSpaceOnUse" color-interpolation-filters="sRGB">
<feFlood flood-opacity="0" result="BackgroundImageFix"/>
<feBlend mode="normal" in="SourceGraphic" in2="BackgroundImageFix" result="shape"/>
<feGaussianBlur stdDeviation="400" result="effect1_foregroundBlur_3_15"/>
</filter>
<filter id="filter2_f_3_15" x="419.213" y="-265.023" width="2585.98" height="2510.71" filterUnits="userSpaceOnUse" color-interpolation-filters="sRGB">
<feFlood flood-opacity="0" result="BackgroundImageFix"/>
<feBlend mode="normal" in="SourceGraphic" in2="BackgroundImageFix" result="shape"/>
<feGaussianBlur stdDeviation="400" result="effect1_foregroundBlur_3_15"/>
</filter>
<filter id="filter3_f_3_15" x="419.213" y="-352.023" width="2585.98" height="2510.71" filterUnits="userSpaceOnUse" color-interpolation-filters="sRGB">
<feFlood flood-opacity="0" result="BackgroundImageFix"/>
<feBlend mode="normal" in="SourceGraphic" in2="BackgroundImageFix" result="shape"/>
<feGaussianBlur stdDeviation="400" result="effect1_foregroundBlur_3_15"/>
</filter>
<linearGradient id="paint0_linear_3_15" x1="-309.478" y1="-13.725" x2="642.075" y2="426.699" gradientUnits="userSpaceOnUse">
<stop stop-color="#2FB4CA"/>
</linearGradient>
<linearGradient id="paint1_linear_3_15" x1="1346.52" y1="823.275" x2="2298.08" y2="1263.7" gradientUnits="userSpaceOnUse">
<stop stop-color="#4285F4"/>
</linearGradient>
<linearGradient id="paint2_linear_3_15" x1="1346.52" y1="736.275" x2="2298.08" y2="1176.7" gradientUnits="userSpaceOnUse">
<stop stop-color="#33BBCF"/>
</linearGradient>
<clipPath id="clip0_3_15">
<rect width="1920" height="1080" fill="white"/>
</clipPath>
</defs>
</svg>
