<svg width="138" height="28" viewBox="0 0 138 28" fill="none" xmlns="http://www.w3.org/2000/svg">
<path d="M14.1802 11.8198H35.3213V27.037H28.4347V24.3342C26.3613 26.0744 23.9547 27.1111 17.6975 27.1111C4.25752 27.1111 -0.000330598 21.7795 -0.000330598 14.2635C-0.000330598 5.00727 8.03405 0.786447 17.4754 0.786447C28.2866 0.786447 31.9891 3.52628 34.3217 8.19141L26.2873 10.9312C25.2506 9.45025 22.881 8.19141 17.4013 8.19141C10.1445 8.19141 8.62645 10.7831 8.62645 14.3375C8.62645 17.5957 9.95934 20.0393 17.4013 20.0393C22.7699 20.0393 23.7696 19.0026 24.8433 17.9289H14.1802V11.8198Z" fill="#4285F4"/>
<path d="M37.6461 1.04562H66.3403V8.22843H46.2728V10.524H65.0444V17.4476H46.2728V19.8172H66.3403V27H37.6461V1.04562Z" fill="#FCBC05"/>
<path d="M90.7657 27H83.6569L77.2886 15.6334V27H68.6619V1.0086H78.9177L87.3224 15.4112L95.764 1.0086H106.057V27H97.4671V15.5593L90.7657 27Z" fill="#0D9D58"/>
<path d="M108.109 1.0086H126.325C128.806 1.0086 137.544 1.34182 137.544 11.0053C137.544 20.6317 129.324 21.7425 126.622 21.7425C124.511 21.7425 118.883 21.7425 116.736 21.7425V27H108.109V1.0086ZM126.066 14.0783C127.399 14.0783 129.472 13.7821 129.472 11.2645C129.472 8.74678 127.14 8.67273 125.918 8.67273C124.696 8.67273 116.736 8.67273 116.736 8.67273V14.0783C116.736 14.0783 124.733 14.0783 126.066 14.0783Z" fill="#EA4334"/>
</svg>
