<svg width="200" height="27" viewBox="0 0 200 27" fill="none" xmlns="http://www.w3.org/2000/svg">
<path d="M64.3732 13.4617C64.3732 15.4652 63.7953 17.0834 62.6008 18.2778C61.2523 19.7034 59.5185 20.397 57.3223 20.397C55.2418 20.397 53.4694 19.6649 52.0053 18.2393C50.5412 16.7752 49.8477 15.0029 49.8477 12.8837C49.8477 10.7646 50.5797 8.9923 52.0053 7.52819C53.4694 6.06407 55.2032 5.37054 57.3223 5.37054C58.3626 5.37054 59.3644 5.56319 60.3276 5.94848C61.2523 6.33378 62.0229 6.83466 62.6394 7.52819L61.3294 8.83818C60.9056 8.29877 60.3276 7.87494 59.5956 7.56671C58.902 7.25847 58.1314 7.10436 57.3223 7.10436C55.7426 7.10436 54.4326 7.64376 53.3538 8.72258C52.275 9.83993 51.7356 11.1885 51.7356 12.8452C51.7356 14.502 52.275 15.8505 53.3538 16.9679C54.4326 18.0467 55.7812 18.5861 57.3223 18.5861C58.7479 18.5861 59.9423 18.2008 60.9056 17.3917C61.8688 16.5826 62.4082 15.4652 62.5623 14.0782H57.3223V12.3443H64.2961C64.3347 12.7682 64.3732 13.1149 64.3732 13.4617Z" fill="white"/>
<path d="M66.6465 20.0887V5.71729H71.0388C73.235 5.71729 75.0073 6.37229 76.3173 7.72081C77.6659 9.0308 78.3208 10.7646 78.3208 12.9223C78.3208 15.0799 77.6659 16.8137 76.3173 18.1237C74.9688 19.4337 73.235 20.0887 71.0388 20.0887H66.6465ZM68.4959 7.48963V18.3164H71.0388C72.6956 18.3164 74.0441 17.854 75.0073 16.8908C75.9706 15.9275 76.4714 14.6175 76.4714 12.9223C76.4714 11.227 75.9706 9.91697 75.0073 8.95374C74.0441 7.99051 72.7341 7.48963 71.0388 7.48963H68.4959Z" fill="white"/>
<path d="M94.3488 13.4617C94.3488 15.4652 93.7708 17.0834 92.5764 18.2778C91.2279 19.7034 89.4941 20.397 87.2979 20.397C85.2173 20.397 83.445 19.6649 81.9809 18.2393C80.5168 16.7752 79.8232 15.0029 79.8232 12.8837C79.8232 10.7646 80.5553 8.9923 81.9809 7.52819C83.445 6.06407 85.1788 5.37054 87.2979 5.37054C88.3382 5.37054 89.34 5.56319 90.3032 5.94848C91.2279 6.33378 91.9985 6.83466 92.615 7.52819L91.305 8.83818C90.8811 8.29877 90.3032 7.87494 89.5711 7.56671C88.8776 7.25847 88.107 7.10436 87.2979 7.10436C85.7182 7.10436 84.4082 7.64376 83.3294 8.72258C82.2506 9.83993 81.7112 11.1885 81.7112 12.8452C81.7112 14.502 82.2506 15.8505 83.3294 16.9679C84.4082 18.0467 85.7568 18.5861 87.2979 18.5861C88.7235 18.5861 89.9179 18.2008 90.8811 17.3917C91.8444 16.5826 92.3838 15.4652 92.5379 14.0782H87.2979V12.3443H94.2717C94.3102 12.7682 94.3488 13.1149 94.3488 13.4617Z" fill="white"/>
<path d="M101.246 20.0887H99.2041L104.637 5.71729H106.717L112.15 20.0887H110.108L108.721 16.1972H102.672L101.246 20.0887ZM105.638 7.99051L103.288 14.4634H108.066L105.716 7.99051H105.638Z" fill="white"/>
<path d="M115.347 5.71729V20.0887H113.498V5.71729H115.347Z" fill="white"/>
<path d="M121.859 24.7508C121.32 24.7508 120.78 24.6737 120.318 24.5581C119.817 24.404 119.393 24.2114 119.008 23.9802C118.623 23.7105 118.276 23.4408 118.006 23.094C117.736 22.7473 117.505 22.362 117.351 21.9381L119.085 21.2061C119.278 21.784 119.624 22.2464 120.125 22.5931C120.626 22.9399 121.204 23.1326 121.859 23.1326C122.861 23.1326 123.631 22.8243 124.209 22.2464C124.787 21.6299 125.057 20.8208 125.057 19.742V18.8173H124.98C124.633 19.3567 124.171 19.742 123.554 20.0502C122.976 20.3584 122.321 20.5126 121.628 20.5126C120.356 20.5126 119.239 20.0117 118.314 19.0099C117.39 17.9696 116.966 16.7367 116.966 15.2726C116.966 13.8085 117.428 12.5755 118.314 11.5738C119.239 10.572 120.356 10.0326 121.628 10.0326C122.321 10.0326 122.976 10.1867 123.554 10.4949C124.132 10.8032 124.633 11.227 124.98 11.7279H125.057V10.3794H126.829V19.7805C126.829 21.3602 126.367 22.5931 125.481 23.4793C124.556 24.2884 123.362 24.7508 121.859 24.7508ZM121.936 18.7017C122.861 18.7017 123.593 18.3549 124.171 17.6999C124.787 17.0449 125.057 16.1973 125.057 15.1185C125.057 14.0782 124.749 13.2305 124.171 12.5755C123.593 11.9205 122.822 11.5738 121.936 11.5738C121.05 11.5738 120.318 11.9205 119.701 12.5755C119.085 13.2305 118.815 14.0782 118.815 15.1185C118.815 16.1587 119.123 17.0064 119.701 17.6614C120.318 18.3934 121.05 18.7017 121.936 18.7017Z" fill="white"/>
<path d="M131.453 6.83453C131.453 7.18129 131.337 7.48952 131.068 7.75923C130.798 8.02893 130.49 8.14452 130.143 8.14452C129.796 8.14452 129.488 8.02893 129.218 7.75923C128.949 7.48952 128.833 7.18129 128.833 6.83453C128.833 6.48777 128.949 6.17953 129.218 5.90983C129.488 5.64012 129.796 5.52454 130.143 5.52454C130.49 5.52454 130.798 5.64012 131.068 5.90983C131.337 6.17953 131.453 6.48777 131.453 6.83453ZM131.068 10.2251V20.0501H129.218V10.2251H131.068Z" fill="white"/>
<path d="M137.81 20.397C136.346 20.397 135.19 19.8961 134.227 18.8944C133.302 17.8926 132.84 16.6597 132.84 15.157C132.84 13.6544 133.302 12.4215 134.188 11.4197C135.113 10.4179 136.269 9.91705 137.695 9.91705C139.159 9.91705 140.315 10.3794 141.162 11.3426C142.01 12.2673 142.472 13.6159 142.472 15.3112L142.434 15.5038H134.689C134.728 16.467 135.036 17.2376 135.652 17.8156C136.269 18.3935 137.001 18.7017 137.849 18.7017C139.043 18.7017 139.968 18.1238 140.623 16.9294L142.28 17.7385C141.856 18.5861 141.239 19.2026 140.43 19.7035C139.698 20.1658 138.812 20.397 137.81 20.397ZM134.843 13.9626H140.469C140.43 13.2691 140.122 12.7297 139.621 12.2673C139.12 11.805 138.465 11.6123 137.617 11.6123C136.924 11.6123 136.307 11.8435 135.807 12.2673C135.344 12.6912 135.036 13.2691 134.843 13.9626Z" fill="white"/>
<path d="M146.016 20.0887H144.167V10.2638H145.939V11.882H146.016C146.209 11.3426 146.594 10.9188 147.172 10.5335C147.75 10.1482 148.328 9.99408 148.906 9.99408C149.446 9.99408 149.908 10.0711 150.255 10.2253L149.677 11.9976C149.446 11.9205 149.099 11.8435 148.598 11.8435C147.904 11.8435 147.288 12.1132 146.787 12.6911C146.286 13.2691 146.016 13.9241 146.016 14.6561V20.0887Z" fill="white"/>
<path d="M158.577 17.3531C158.577 18.2008 158.192 18.9328 157.46 19.5108C156.728 20.0887 155.765 20.3969 154.647 20.3969C153.646 20.3969 152.798 20.1272 152.027 19.6264C151.295 19.1255 150.756 18.4319 150.409 17.5843L152.066 16.8908C152.297 17.4687 152.644 17.9311 153.106 18.2778C153.569 18.6246 154.069 18.7787 154.609 18.7787C155.187 18.7787 155.688 18.6631 156.073 18.3934C156.458 18.1237 156.651 17.854 156.651 17.5072C156.651 16.8908 156.15 16.4284 155.187 16.1202L153.492 15.6964C151.565 15.1955 150.602 14.3093 150.602 12.9223C150.602 12.0361 150.949 11.304 151.681 10.7646C152.413 10.2252 153.337 9.95551 154.493 9.95551C155.379 9.95551 156.15 10.1482 156.844 10.572C157.537 10.9958 158.038 11.5352 158.308 12.2287L156.651 12.9223C156.458 12.4984 156.15 12.1902 155.726 11.959C155.302 11.7279 154.84 11.6123 154.301 11.6123C153.8 11.6123 153.376 11.7279 152.991 11.959C152.605 12.1902 152.413 12.4984 152.413 12.8452C152.413 13.4231 152.952 13.8084 153.992 14.0396L155.495 14.4249C157.614 14.8873 158.577 15.8505 158.577 17.3531Z" fill="white"/>
<path d="M64.3732 13.4617C64.3732 15.4652 63.7953 17.0834 62.6008 18.2778C61.2523 19.7034 59.5185 20.397 57.3223 20.397C55.2418 20.397 53.4694 19.6649 52.0053 18.2393C50.5412 16.7752 49.8477 15.0029 49.8477 12.8837C49.8477 10.7646 50.5797 8.9923 52.0053 7.52819C53.4694 6.06407 55.2032 5.37054 57.3223 5.37054C58.3626 5.37054 59.3644 5.56319 60.3276 5.94848C61.2523 6.33378 62.0229 6.83466 62.6394 7.52819L61.3294 8.83818C60.9056 8.29877 60.3276 7.87494 59.5956 7.56671C58.902 7.25847 58.1314 7.10436 57.3223 7.10436C55.7426 7.10436 54.4326 7.64376 53.3538 8.72258C52.275 9.83993 51.7356 11.1885 51.7356 12.8452C51.7356 14.502 52.275 15.8505 53.3538 16.9679C54.4326 18.0467 55.7812 18.5861 57.3223 18.5861C58.7479 18.5861 59.9423 18.2008 60.9056 17.3917C61.8688 16.5826 62.4082 15.4652 62.5623 14.0782H57.3223V12.3443H64.2961C64.3347 12.7682 64.3732 13.1149 64.3732 13.4617Z" fill="white"/>
<path d="M66.6465 20.0887V5.71729H71.0388C73.235 5.71729 75.0073 6.37229 76.3173 7.72081C77.6659 9.0308 78.3208 10.7646 78.3208 12.9223C78.3208 15.0799 77.6659 16.8137 76.3173 18.1237C74.9688 19.4337 73.235 20.0887 71.0388 20.0887H66.6465ZM68.4959 7.48963V18.3164H71.0388C72.6956 18.3164 74.0441 17.854 75.0073 16.8908C75.9706 15.9275 76.4714 14.6175 76.4714 12.9223C76.4714 11.227 75.9706 9.91697 75.0073 8.95374C74.0441 7.99051 72.7341 7.48963 71.0388 7.48963H68.4959Z" fill="white"/>
<path d="M94.3488 13.4617C94.3488 15.4652 93.7708 17.0834 92.5764 18.2778C91.2279 19.7034 89.4941 20.397 87.2979 20.397C85.2173 20.397 83.445 19.6649 81.9809 18.2393C80.5168 16.7752 79.8232 15.0029 79.8232 12.8837C79.8232 10.7646 80.5553 8.9923 81.9809 7.52819C83.445 6.06407 85.1788 5.37054 87.2979 5.37054C88.3382 5.37054 89.34 5.56319 90.3032 5.94848C91.2279 6.33378 91.9985 6.83466 92.615 7.52819L91.305 8.83818C90.8811 8.29877 90.3032 7.87494 89.5711 7.56671C88.8776 7.25847 88.107 7.10436 87.2979 7.10436C85.7182 7.10436 84.4082 7.64376 83.3294 8.72258C82.2506 9.83993 81.7112 11.1885 81.7112 12.8452C81.7112 14.502 82.2506 15.8505 83.3294 16.9679C84.4082 18.0467 85.7568 18.5861 87.2979 18.5861C88.7235 18.5861 89.9179 18.2008 90.8811 17.3917C91.8444 16.5826 92.3838 15.4652 92.5379 14.0782H87.2979V12.3443H94.2717C94.3102 12.7682 94.3488 13.1149 94.3488 13.4617Z" fill="white"/>
<path d="M101.246 20.0887H99.2041L104.637 5.71729H106.717L112.15 20.0887H110.108L108.721 16.1972H102.672L101.246 20.0887ZM105.638 7.99051L103.288 14.4634H108.066L105.716 7.99051H105.638Z" fill="white"/>
<path d="M115.347 5.71729V20.0887H113.498V5.71729H115.347Z" fill="white"/>
<path d="M121.859 24.7508C121.32 24.7508 120.78 24.6737 120.318 24.5581C119.817 24.404 119.393 24.2114 119.008 23.9802C118.623 23.7105 118.276 23.4408 118.006 23.094C117.736 22.7473 117.505 22.362 117.351 21.9381L119.085 21.2061C119.278 21.784 119.624 22.2464 120.125 22.5931C120.626 22.9399 121.204 23.1326 121.859 23.1326C122.861 23.1326 123.631 22.8243 124.209 22.2464C124.787 21.6299 125.057 20.8208 125.057 19.742V18.8173H124.98C124.633 19.3567 124.171 19.742 123.554 20.0502C122.976 20.3584 122.321 20.5126 121.628 20.5126C120.356 20.5126 119.239 20.0117 118.314 19.0099C117.39 17.9696 116.966 16.7367 116.966 15.2726C116.966 13.8085 117.428 12.5755 118.314 11.5738C119.239 10.572 120.356 10.0326 121.628 10.0326C122.321 10.0326 122.976 10.1867 123.554 10.4949C124.132 10.8032 124.633 11.227 124.98 11.7279H125.057V10.3794H126.829V19.7805C126.829 21.3602 126.367 22.5931 125.481 23.4793C124.556 24.2884 123.362 24.7508 121.859 24.7508ZM121.936 18.7017C122.861 18.7017 123.593 18.3549 124.171 17.6999C124.787 17.0449 125.057 16.1973 125.057 15.1185C125.057 14.0782 124.749 13.2305 124.171 12.5755C123.593 11.9205 122.822 11.5738 121.936 11.5738C121.05 11.5738 120.318 11.9205 119.701 12.5755C119.085 13.2305 118.815 14.0782 118.815 15.1185C118.815 16.1587 119.123 17.0064 119.701 17.6614C120.318 18.3934 121.05 18.7017 121.936 18.7017Z" fill="white"/>
<path d="M131.453 6.83453C131.453 7.18129 131.337 7.48952 131.068 7.75923C130.798 8.02893 130.49 8.14452 130.143 8.14452C129.796 8.14452 129.488 8.02893 129.218 7.75923C128.949 7.48952 128.833 7.18129 128.833 6.83453C128.833 6.48777 128.949 6.17953 129.218 5.90983C129.488 5.64012 129.796 5.52454 130.143 5.52454C130.49 5.52454 130.798 5.64012 131.068 5.90983C131.337 6.17953 131.453 6.48777 131.453 6.83453ZM131.068 10.2251V20.0501H129.218V10.2251H131.068Z" fill="white"/>
<path d="M137.81 20.397C136.346 20.397 135.19 19.8961 134.227 18.8944C133.302 17.8926 132.84 16.6597 132.84 15.157C132.84 13.6544 133.302 12.4215 134.188 11.4197C135.113 10.4179 136.269 9.91705 137.695 9.91705C139.159 9.91705 140.315 10.3794 141.162 11.3426C142.01 12.2673 142.472 13.6159 142.472 15.3112L142.434 15.5038H134.689C134.728 16.467 135.036 17.2376 135.652 17.8156C136.269 18.3935 137.001 18.7017 137.849 18.7017C139.043 18.7017 139.968 18.1238 140.623 16.9294L142.28 17.7385C141.856 18.5861 141.239 19.2026 140.43 19.7035C139.698 20.1658 138.812 20.397 137.81 20.397ZM134.843 13.9626H140.469C140.43 13.2691 140.122 12.7297 139.621 12.2673C139.12 11.805 138.465 11.6123 137.617 11.6123C136.924 11.6123 136.307 11.8435 135.807 12.2673C135.344 12.6912 135.036 13.2691 134.843 13.9626Z" fill="white"/>
<path d="M146.016 20.0887H144.167V10.2638H145.939V11.882H146.016C146.209 11.3426 146.594 10.9188 147.172 10.5335C147.75 10.1482 148.328 9.99408 148.906 9.99408C149.446 9.99408 149.908 10.0711 150.255 10.2253L149.677 11.9976C149.446 11.9205 149.099 11.8435 148.598 11.8435C147.904 11.8435 147.288 12.1132 146.787 12.6911C146.286 13.2691 146.016 13.9241 146.016 14.6561V20.0887Z" fill="white"/>
<path d="M158.577 17.3531C158.577 18.2008 158.192 18.9328 157.46 19.5108C156.728 20.0887 155.765 20.3969 154.647 20.3969C153.646 20.3969 152.798 20.1272 152.027 19.6264C151.295 19.1255 150.756 18.4319 150.409 17.5843L152.066 16.8908C152.297 17.4687 152.644 17.9311 153.106 18.2778C153.569 18.6246 154.069 18.7787 154.609 18.7787C155.187 18.7787 155.688 18.6631 156.073 18.3934C156.458 18.1237 156.651 17.854 156.651 17.5072C156.651 16.8908 156.15 16.4284 155.187 16.1202L153.492 15.6964C151.565 15.1955 150.602 14.3093 150.602 12.9223C150.602 12.0361 150.949 11.304 151.681 10.7646C152.413 10.2252 153.337 9.95551 154.493 9.95551C155.379 9.95551 156.15 10.1482 156.844 10.572C157.537 10.9958 158.038 11.5352 158.308 12.2287L156.651 12.9223C156.458 12.4984 156.15 12.1902 155.726 11.959C155.302 11.7279 154.84 11.6123 154.301 11.6123C153.8 11.6123 153.376 11.7279 152.991 11.959C152.605 12.1902 152.413 12.4984 152.413 12.8452C152.413 13.4231 152.952 13.8084 153.992 14.0396L155.495 14.4249C157.614 14.8873 158.577 15.8505 158.577 17.3531Z" fill="white"/>
<path fill-rule="evenodd" clip-rule="evenodd" d="M13.2827 3.2899L1.72393 9.95546C0.144228 10.8802 -0.395181 12.8837 0.529521 14.4634C1.45422 16.0431 3.45774 16.5825 5.03744 15.6578L16.5962 8.99223C18.1759 8.06753 18.7153 6.06401 17.7906 4.48431C16.9044 2.90461 14.8624 2.36519 13.2827 3.2899Z" fill="#EA4334"/>
<path fill-rule="evenodd" clip-rule="evenodd" d="M16.5191 16.6981L4.9603 10.0326C3.3806 9.10787 1.33855 9.64728 0.452372 11.227C-0.47233 12.8067 0.06708 14.8487 1.64678 15.7349L13.2056 22.4005C14.7853 23.3252 16.8273 22.7858 17.7135 21.2061C18.6382 19.6264 18.0988 17.5843 16.5191 16.6981Z" fill="#4285F4"/>
<path fill-rule="evenodd" clip-rule="evenodd" d="M24.2249 16.8136L35.7837 10.148C37.3634 9.22335 39.4054 9.76276 40.2916 11.3425C41.2163 12.9222 40.6769 14.9642 39.0972 15.8504L27.5384 22.5159C25.9587 23.4406 23.9167 22.9012 23.0305 21.3215C22.1058 19.7418 22.6452 17.6998 24.2249 16.8136Z" fill="#FCBC05"/>
<path fill-rule="evenodd" clip-rule="evenodd" d="M27.6537 3.40544L39.2124 10.071C40.7921 10.9957 41.3315 12.9992 40.4068 14.5789C39.4821 16.1586 37.4786 16.698 35.8989 15.7733L24.3401 9.10776C22.7604 8.18306 22.221 6.17954 23.1457 4.59984C24.0319 3.02015 26.074 2.48073 27.6537 3.40544Z" fill="#0D9D58"/>
<path d="M199.572 24.9819H192.135C187.936 23.1325 184.699 19.9346 182.388 15.4266C182.426 15.3496 182.426 15.2725 182.388 15.1955C181.848 11.1499 181.694 6.25666 182.002 1.44051C182.041 1.13228 181.771 0.82404 181.463 0.82404C181.155 0.785511 180.846 1.05522 180.846 1.36346C180.615 4.98521 180.654 8.684 180.885 11.9975C180.384 10.5719 179.922 9.0693 179.575 7.45107C179.575 7.41254 179.575 7.37401 179.536 7.37401C179.729 5.2549 180.037 3.02021 180.538 0.708457C180.615 0.400223 180.384 0.0919939 180.076 0.0149354C179.768 -0.0621231 179.459 0.169045 179.382 0.477279C179.036 2.09551 178.766 3.67521 178.573 5.21638C178.458 5.25491 178.381 5.37049 178.303 5.44755C177.726 5.33196 177.148 5.33196 176.57 5.44755C176.531 5.33196 176.493 5.25491 176.377 5.17785C176.146 3.59815 175.799 2.01845 175.337 0.438748C175.26 0.130514 174.913 -0.0621325 174.605 0.0534552C174.296 0.130514 174.104 0.477286 174.219 0.78552C174.836 2.90463 175.221 5.06226 175.414 7.18136C175.414 7.21989 175.414 7.25843 175.414 7.29696C175.414 7.29696 175.414 7.29696 175.414 7.33549C175.414 7.37402 175.414 7.41254 175.414 7.41254C175.221 9.7243 174.682 11.8819 173.834 13.924C174.181 10.4178 174.296 6.21813 174.142 1.44051C174.142 1.13228 173.873 0.862571 173.526 0.862571C173.218 0.862571 172.948 1.13228 172.948 1.47904C173.141 7.64372 172.909 12.7681 172.254 16.7366C172.254 16.7752 172.254 16.8137 172.254 16.8522C170.212 20.0501 167.169 22.7857 163.2 25.0975H156.843C156.573 25.0975 156.342 25.3286 156.342 25.5983C156.342 25.868 156.573 26.0992 156.843 26.0992H161.389H163.855H171.407H171.522H172.717H172.832H173.41H176.493H177.071H177.648H178.226H181.232H181.81H182.002H182.079H183.274H183.389H191.326H194.717H199.495C199.764 26.0992 199.995 25.868 199.995 25.5983C200.034 25.1745 199.841 24.9819 199.572 24.9819ZM178.342 13.7313C178.419 14.7716 178.573 15.7734 178.727 16.7366C178.458 16.0816 178.226 15.4266 178.034 14.7716C178.149 14.4249 178.226 14.0781 178.342 13.7313ZM176.647 7.06578C176.647 7.18137 176.647 7.25842 176.685 7.37401C176.685 7.4896 176.685 7.56666 176.724 7.68225H178.265C178.149 9.30048 177.918 10.9572 177.494 12.6525C177.148 11.2655 176.916 9.87841 176.801 8.52989C176.762 8.26018 176.762 7.99049 176.724 7.72078C176.724 7.60519 176.724 7.52813 176.724 7.41254C176.647 7.25842 176.647 7.18137 176.647 7.06578ZM176.493 13.7313C176.57 14.0781 176.685 14.4249 176.801 14.7716C176.531 15.6578 176.184 16.544 175.838 17.4301C176.146 16.1972 176.338 14.9643 176.493 13.7313ZM171.908 24.9819H165.473C170.366 21.7839 173.68 17.854 175.375 13.1534C174.951 17.0834 173.796 21.0134 171.908 24.9819ZM177.263 24.9819C177.34 24.4425 177.379 23.8645 177.456 23.2866C177.494 23.8645 177.571 24.4425 177.648 24.9819H177.263ZM181.54 24.9819H181.27H178.188C177.918 22.7472 177.764 20.2428 177.726 17.4301V17.3916C177.726 17.199 177.726 16.9678 177.726 16.7752C177.726 16.4669 177.726 16.1202 177.726 15.8119C177.726 15.5037 177.726 15.1955 177.726 14.8487C177.726 14.6946 177.61 14.5405 177.456 14.5405C177.302 14.5405 177.186 14.656 177.186 14.8487C177.186 15.1955 177.186 15.5037 177.186 15.8504C177.186 16.1587 177.186 16.4669 177.186 16.7752C177.186 16.9678 177.186 17.199 177.186 17.3916V17.4301C177.148 20.2813 176.993 22.7857 176.724 25.0204H173.564H173.333H173.218C173.333 24.7507 176.223 19.819 177.148 17.4301C177.148 17.2375 177.148 17.0063 177.148 16.7752C177.148 16.4669 177.148 16.1202 177.148 15.8119C177.148 15.5037 177.148 15.1955 177.148 14.8487C177.148 14.6946 177.263 14.5405 177.456 14.5405C177.61 14.5405 177.764 14.656 177.764 14.8487C177.764 15.1569 177.764 15.4652 177.764 15.7734C177.764 16.1202 177.764 16.4669 177.764 16.7752C177.764 17.0063 177.764 17.2375 177.764 17.4301C178.612 19.7034 181.54 24.9048 181.54 24.9819ZM182.966 24.9819H182.927C182.773 24.7507 182.657 24.481 182.503 24.2498C180.5 20.474 179.498 16.1587 179.421 11.2655C181.463 17.6228 184.892 22.2463 189.593 24.9819H182.966Z" fill="white"/>
</svg>
