<svg width="56" height="77" viewBox="0 0 56 77" fill="none" xmlns="http://www.w3.org/2000/svg">
<rect y="10.5" width="56" height="56" rx="28" fill="#006FEE"/>
<path d="M27.9917 19.8232C23.101 19.8232 19.125 23.7992 19.125 28.6899C19.125 33.4872 22.877 37.3699 27.7677 37.5379C27.917 37.5192 28.0663 37.5192 28.1783 37.5379C28.2157 37.5379 28.2343 37.5379 28.2717 37.5379C28.2903 37.5379 28.2903 37.5379 28.309 37.5379C33.0877 37.3699 36.8397 33.4872 36.8583 28.6899C36.8583 23.7992 32.8823 19.8232 27.9917 19.8232Z" fill="white"/>
<path d="M37.474 42.5012C32.266 39.0292 23.7728 39.0292 18.5274 42.5012C16.1568 44.0879 14.8501 46.2346 14.8501 48.5306C14.8501 50.8266 16.1568 52.9545 18.5088 54.5225C21.1221 56.2772 24.5567 57.1545 27.9914 57.1545C31.426 57.1545 34.8607 56.2772 37.474 54.5225C39.826 52.9359 41.1327 50.8079 41.1327 48.4932C41.114 46.1972 39.826 44.0692 37.474 42.5012Z" fill="white"/>
</svg>
