<svg width="18" height="18" viewBox="0 0 18 18" fill="none" xmlns="http://www.w3.org/2000/svg">
<path fill-rule="evenodd" clip-rule="evenodd" d="M4.59858 15.8239L7.89522 13.8258C8.57368 13.4146 9.42446 13.4145 10.103 13.8257L13.4015 15.8244L12.528 12.0807C12.3487 11.3126 12.6086 10.5084 13.2034 9.99047L16.1086 7.46048L12.2825 7.13558C11.4965 7.06883 10.8117 6.5731 10.5029 5.84721L9 2.31498L7.49712 5.84721C7.18827 6.57309 6.5035 7.06883 5.71747 7.13558L1.89144 7.46048L4.79664 9.99047C5.3914 10.5084 5.65127 11.3126 5.47205 12.0807L4.59858 15.8239ZM8.55761 14.9187C8.829 14.7542 9.16931 14.7542 9.44071 14.9186L13.6048 17.4418C14.25 17.8328 15.0474 17.2542 14.876 16.5196L13.7725 11.7903C13.7008 11.4831 13.8047 11.1614 14.0426 10.9542L17.7064 7.76362C18.2739 7.2694 17.9688 6.33591 17.2189 6.27224L12.3907 5.86223C12.0762 5.83553 11.8023 5.63724 11.6788 5.34688L9.78395 0.893404C9.48985 0.2022 8.51015 0.202199 8.21605 0.893403L6.3212 5.34688C6.19766 5.63723 5.92375 5.83553 5.60934 5.86223L0.781053 6.27224C0.031211 6.33591 -0.273874 7.2694 0.293637 7.76362L3.95739 10.9542C4.19529 11.1614 4.29924 11.4831 4.22755 11.7903L3.12406 16.5193C2.95263 17.2539 3.75017 17.8325 4.39532 17.4415L8.55761 14.9187Z" fill="#FFC500"/>
</svg>
